<svg width="1630" height="1854" viewBox="0 0 1630 1854" fill="none" xmlns="http://www.w3.org/2000/svg">
<path d="M1342.92 811.302C1342.81 742.952 1329.75 674.586 1303.67 611.365C1278.51 550.397 1242.22 494.338 1196.37 446.89C1150.85 399.788 1096.85 361.084 1037.23 333.887C975.555 305.756 908.369 289.73 840.634 287.164C771.607 284.549 701.956 295.304 637.202 319.438C575.029 342.611 517.351 377.168 467.834 421.376C418.016 465.853 376.217 519.64 345.953 579.203C314.349 641.402 294.973 708.896 288.879 778.395C282.215 854.384 291.888 931.989 317.849 1003.77C343.477 1074.62 384.257 1139.76 437.207 1193.4C450.495 1206.86 464.553 1219.47 479.042 1231.62C493.583 1243.8 505.703 1258.96 514.939 1275.51C528.958 1300.64 534.047 1328.11 534.047 1356.57C534.047 1378.02 534.047 1399.48 534.047 1420.93C534.047 1429.84 533.809 1438.78 537.295 1447.21C540.785 1455.64 546.566 1462.67 553.828 1467.45C537.654 1483.57 527.473 1505.97 527 1529.61C526.315 1563.83 549.233 1594.2 581.089 1602.9C573.782 1611.21 567.936 1620.94 564.024 1631.57C551.732 1664.99 560.943 1703.88 591.073 1724.34C601.845 1731.66 614.052 1735.08 626.687 1736.11C631.047 1746.41 635.406 1756.7 639.766 1766.99C645.313 1780.09 650.3 1793.68 656.773 1806.36C669.629 1831.55 695.395 1848.97 723.342 1852.47C732.916 1853.67 742.868 1853.09 752.494 1853.09C787.414 1853.09 822.333 1853.09 857.253 1853.09C866.297 1853.09 875.342 1853.16 884.386 1853.09C913.074 1852.89 939.375 1839.85 957.993 1818.16C969.981 1804.19 976.428 1787.28 983.494 1770.6C988.457 1758.88 993.42 1747.16 998.383 1735.44C1018.56 1732.35 1036.59 1722.24 1050.06 1705.97C1063.14 1690.18 1070.55 1670.38 1071.15 1649.93C1071.19 1649.4 1071.21 1648.86 1071.21 1648.34C1071 1629.11 1063.93 1611.37 1051.85 1597.98C1057.94 1595.18 1063.74 1591.6 1069.18 1587.24C1102.92 1560.16 1114.84 1506.79 1087.42 1471.2C1084.17 1466.98 1080.48 1463.17 1076.45 1459.81C1085.76 1451.28 1092.36 1439.62 1094.77 1426.48C1096.16 1418.86 1095.68 1410.79 1095.68 1403.08C1095.68 1391.6 1095.68 1380.13 1095.68 1368.65C1095.68 1347.34 1094.55 1326.21 1098.88 1305.73C1100.71 1297.1 1102.86 1290.14 1106.66 1280.96C1107.46 1279.04 1108.29 1277.13 1109.16 1275.24C1109.36 1274.85 1109.78 1274 1109.88 1273.81C1110.42 1272.76 1110.95 1271.7 1111.51 1270.66C1113.74 1266.48 1116.14 1262.39 1118.72 1258.42C1119.22 1257.66 1119.72 1256.9 1120.23 1256.14C1120.5 1255.78 1121.04 1255.02 1121.16 1254.86C1122.59 1252.96 1124 1251.05 1125.49 1249.18C1128.28 1245.68 1132.29 1241.08 1134.67 1238.61C1140.11 1232.98 1148.39 1226.37 1155.1 1220.57C1183.78 1195.8 1210 1167.95 1232.85 1137.71C1280.13 1075.15 1313.73 1002.86 1330.57 926.235C1338.85 888.548 1342.85 849.876 1342.92 811.302ZM397.689 532.329C399.13 530.266 398.193 531.599 397.689 532.329ZM358.706 599.837C358.399 600.493 357.283 602.778 358.706 599.837ZM563.447 1488.16C563.598 1487.99 563.57 1488.02 563.447 1488.16ZM600.196 1614.88C600.635 1614.51 600.484 1614.65 600.196 1614.88ZM957.872 1777.62C956.87 1779.99 955.867 1782.36 954.865 1784.72C954.593 1785.36 954.318 1786 954.05 1786.65C953.987 1786.8 953.884 1787.04 953.777 1787.3C953.511 1787.77 952.296 1790.26 952.021 1790.76C951.214 1792.21 950.267 1793.58 949.464 1795.03C949.428 1795.1 949.403 1795.15 949.373 1795.2C949.199 1795.44 949.029 1795.68 948.853 1795.92C947.734 1797.42 946.563 1798.88 945.342 1800.31C944.713 1801.04 942.35 1803.46 943.497 1802.38C942.497 1803.35 941.493 1804.3 940.45 1805.22C939.406 1806.14 938.338 1807.04 937.247 1807.9C936.52 1808.48 935.781 1809.04 935.039 1809.6C935.016 1809.61 935.003 1809.62 934.982 1809.64C934.914 1809.68 934.847 1809.73 934.757 1809.78C924.332 1816.52 913.988 1820.59 901.396 1821.49C893.051 1822.09 884.54 1821.66 876.186 1821.66C842.012 1821.66 807.838 1821.66 773.665 1821.66C764.34 1821.66 755.013 1821.7 745.687 1821.66C723.478 1821.54 702.078 1812.4 687.811 1795.18C678.457 1783.89 673.861 1770.69 668.155 1757.22C665.224 1750.3 662.293 1743.38 659.362 1736.46C678.781 1736.46 698.199 1736.46 717.618 1736.46C760.953 1736.46 804.288 1736.46 847.623 1736.46C884.515 1736.46 921.407 1736.46 958.299 1736.46C963.968 1736.46 969.637 1736.46 975.307 1736.46C972.781 1742.43 970.255 1748.39 967.729 1754.36C964.442 1762.11 961.157 1769.87 957.872 1777.62ZM1045.19 1672.64C1045.15 1672.89 1044.91 1673.8 1044.84 1674.12C1044.63 1674.78 1044.41 1675.44 1044.18 1676.09C1043.84 1677.07 1043.43 1678.02 1043.08 1678.99C1042.96 1679.3 1042.89 1679.51 1042.83 1679.69C1042.81 1679.72 1042.8 1679.73 1042.79 1679.76C1041.8 1681.55 1040.71 1683.3 1039.75 1685.1C1039.73 1685.12 1039.73 1685.14 1039.71 1685.16C1039.27 1685.75 1038.83 1686.35 1038.37 1686.94C1038.05 1687.34 1035.31 1690.43 1035.64 1690.19C1034.02 1691.77 1032.29 1693.2 1030.56 1694.66C1030.58 1694.65 1030.01 1695.09 1029.65 1695.37C1029.13 1695.72 1028.23 1696.35 1028.09 1696.43C1026.35 1697.53 1024.58 1698.54 1022.75 1699.47C1019.27 1701.25 1016.37 1702.29 1012.1 1703.35C1007.79 1704.43 1003.53 1704.98 999.103 1705.02C998.423 1704.95 997.757 1704.96 997.104 1705.03C991.861 1705.06 986.617 1705.03 981.375 1705.03C949.21 1705.03 917.045 1705.03 884.881 1705.03C842.299 1705.03 799.716 1705.03 757.134 1705.03C724.891 1705.03 692.647 1705.03 660.404 1705.03C654.465 1705.03 648.524 1705.07 642.586 1705.03C631.494 1704.94 621.636 1702.55 612.147 1697.03C600.748 1690.39 591.186 1679.38 586.877 1667.69C584.008 1659.92 583.205 1655.3 583.301 1647.51C583.35 1643.54 583.621 1642.28 584.528 1637.78C584.613 1637.36 584.678 1637.04 584.729 1636.79C584.98 1635.96 585.254 1635.14 585.542 1634.33C585.89 1633.35 586.285 1632.4 586.649 1631.43C586.785 1631.06 586.886 1630.78 586.963 1630.56C587.057 1630.39 587.163 1630.2 587.289 1629.97C588.146 1628.4 589.133 1626.9 589.981 1625.32C590.001 1625.29 590.012 1625.26 590.03 1625.23C590.646 1624.46 591.218 1623.66 591.838 1622.89C592.479 1622.1 593.156 1621.34 593.815 1620.57C593.949 1620.41 594.041 1620.3 594.117 1620.2C595.735 1618.63 597.461 1617.22 599.169 1615.76C599.494 1615.48 599.739 1615.27 599.932 1615.1C600.696 1614.57 601.503 1614.06 602.291 1613.57C604.032 1612.5 605.829 1611.51 607.663 1610.6C610.718 1609.08 613.75 1608.03 617.628 1607.06C625.576 1605.08 633.495 1605.39 641.589 1605.39C671.083 1605.39 700.578 1605.39 730.072 1605.39C772.494 1605.39 814.917 1605.39 857.34 1605.39C891.936 1605.39 926.531 1605.39 961.127 1605.39C969.182 1605.39 977.238 1605.39 985.293 1605.39C1003.79 1605.39 1021.14 1612.07 1032.94 1626.18C1042.04 1637.07 1046.3 1649.26 1046.43 1662.09C1046.38 1666.57 1046.09 1667.89 1045.19 1672.64ZM1077.84 1535.14C1078.15 1532.94 1077.89 1534.49 1077.84 1535.14ZM1077.96 1531.72C1077.95 1532.87 1077.9 1534.02 1077.84 1535.17C1077.82 1535.28 1077.8 1535.39 1077.78 1535.52C1077.49 1537.55 1077.17 1539.56 1076.73 1541.56C1076.62 1542.02 1076.34 1543.06 1076.24 1543.44C1076.11 1543.83 1075.99 1544.21 1075.86 1544.6C1075.5 1545.65 1073.87 1549.32 1074.07 1549.12C1073.37 1550.42 1072.64 1551.71 1071.91 1553C1071.71 1553.37 1071.3 1553.97 1071.03 1554.37C1070.83 1554.64 1070.64 1554.91 1070.44 1555.18C1069.25 1556.72 1067.83 1558.1 1066.66 1559.65C1066.56 1559.73 1066.49 1559.79 1066.38 1559.89C1065.39 1560.74 1064.45 1561.65 1063.44 1562.49C1062.88 1562.96 1060.6 1564.65 1060.57 1564.73C1059.01 1565.77 1057.4 1566.75 1055.74 1567.64C1054.29 1568.43 1052.81 1569.15 1051.31 1569.82C1050.99 1569.96 1050.57 1570.14 1050.46 1570.18C1049.2 1570.63 1047.94 1571.07 1046.66 1571.45C1040.56 1573.29 1035.27 1573.95 1029.37 1573.96C1019.31 1573.98 1009.25 1573.96 999.194 1573.96C998.875 1573.96 998.562 1573.99 998.248 1574.02C995.204 1573.95 992.144 1573.96 989.059 1573.96C958.499 1573.96 927.939 1573.96 897.379 1573.96C853.473 1573.96 809.568 1573.96 765.662 1573.96C731.217 1573.96 696.771 1573.96 662.326 1573.96C655.79 1573.96 649.253 1573.93 642.717 1573.96C642.64 1573.96 642.564 1573.96 642.488 1573.97C642.442 1573.96 642.4 1573.96 642.354 1573.96C620.464 1573.96 597.446 1576.73 578.369 1564.59C565.056 1556.12 555.961 1542.77 552.732 1527.6C551.475 1521.69 551.513 1514.31 552.584 1508.71C552.796 1507.6 553.108 1506.51 553.309 1505.4C553.321 1505.33 553.33 1505.28 553.339 1505.22C553.371 1505.14 553.403 1505.05 553.439 1504.95C554.042 1503.28 554.688 1501.62 555.287 1499.95C555.331 1499.83 555.37 1499.72 555.407 1499.61C555.906 1498.76 556.322 1497.84 556.81 1496.98C557.243 1496.21 557.719 1495.48 558.154 1494.72C558.254 1494.54 558.336 1494.4 558.409 1494.26C558.439 1494.23 558.466 1494.19 558.498 1494.15C559.835 1492.42 561.208 1490.74 562.641 1489.09C562.666 1489.06 562.683 1489.04 562.706 1489.02C563.556 1488.21 564.402 1487.41 565.285 1486.64C566.108 1485.92 566.971 1485.26 567.806 1484.56C568.211 1484.23 568.625 1483.92 569.04 1483.61C571.017 1482.32 573.044 1481.11 575.146 1480.02C578.665 1478.21 580.737 1477.37 585.659 1476.1C589.147 1475.21 592.258 1474.7 595.43 1474.47C607.505 1474.46 619.586 1474.32 631.651 1474.32C674.115 1474.32 716.578 1474.32 759.042 1474.32C807.375 1474.32 855.707 1474.32 904.039 1474.32C940.815 1474.32 977.592 1474.32 1014.37 1474.32C1015.86 1474.32 1017.36 1474.32 1018.85 1474.32C1018.87 1474.32 1018.89 1474.32 1018.91 1474.32C1034.84 1474.49 1050.59 1480.45 1061.41 1491.71C1066.67 1497.18 1071.53 1504.37 1073.91 1510.41C1077.07 1518.46 1078.04 1523.68 1077.96 1531.72ZM745.05 1216.25C740.579 1176.66 735.362 1137.14 729.105 1097.79C725.178 1073.09 720.972 1048.36 715.332 1023.97C716.549 1024 717.767 1024.03 718.984 1024.05C743.378 1024.6 767.781 1024.8 792.181 1024.87C833.919 1024.99 875.883 1025.48 917.626 1023.62C914.996 1033.89 912.639 1044.24 910.512 1054.64C902.676 1092.95 897.004 1131.75 891.848 1170.5C881.377 1249.21 874.515 1328.35 868.594 1407.51C867.712 1419.3 866.857 1431.09 866.01 1442.88C857.279 1442.88 848.548 1442.88 839.817 1442.88C814.778 1442.88 789.74 1442.88 764.701 1442.88C759.323 1367.24 753.559 1291.61 745.05 1216.25ZM572.926 910.147C572.978 909.432 572.925 908.243 572.926 910.147ZM573.225 908.393C573.267 908.169 573.433 907.498 573.551 907.002C573.611 906.823 573.662 906.67 573.682 906.611C573.732 906.465 573.804 906.294 573.882 906.125C574.055 905.83 574.215 905.532 574.351 905.237C574.692 904.832 575.02 904.422 575.349 904.011C575.939 903.554 576.538 902.981 577.074 902.521C577.28 902.345 577.419 902.218 577.525 902.116C577.667 902.066 577.881 901.975 578.211 901.818C578.705 901.582 580.745 900.501 581.245 900.211C581.599 900.071 582.138 899.851 582.157 899.845C583.204 899.503 584.243 899.165 585.306 898.878C596.785 895.784 609.268 897.972 619.997 904.264C632.403 911.539 641.554 922.752 649.243 934.709C658.115 948.505 665.325 963.39 671.405 978.604C672.76 981.994 674.047 985.408 675.297 988.834C656.069 985.723 637.358 980.112 620.024 970.704C607.45 963.879 595.312 955.385 586.376 944.086C582.418 939.082 578.747 933.471 576.454 927.73C575.22 924.639 574.213 921.441 573.523 918.184C572.922 915.346 572.945 914.432 572.929 910.608C572.928 910.47 572.928 910.353 572.928 910.237C573.018 909.62 573.11 909.006 573.225 908.393ZM574.313 905.282C574.32 905.274 574.326 905.266 574.333 905.257C574.308 905.311 574.205 905.504 574.001 905.873C574.132 905.607 574.259 905.375 574.313 905.282ZM964.626 952.412C964.697 952.271 964.798 952.066 964.946 951.766C966.027 949.575 967.118 947.391 968.246 945.223C971.879 938.239 975.944 931.596 980.055 924.895C980.103 924.817 980.133 924.766 980.172 924.703C980.63 924.078 981.072 923.442 981.531 922.818C982.624 921.333 983.75 919.872 984.907 918.437C986.06 917.008 987.244 915.604 988.468 914.235C988.99 913.651 989.521 913.073 990.057 912.502C990.133 912.422 990.182 912.368 990.238 912.307C990.432 912.132 990.656 911.928 990.954 911.655C996.727 906.353 999.588 904.157 1006.9 900.659C1009.6 899.37 1017.3 897.573 1021.68 897.487C1027.45 897.373 1033.62 898.156 1038.51 900.215C1044.29 902.647 1048.64 905.764 1052.08 910.622C1053.81 913.066 1054.63 914.61 1055.46 917.126C1056.78 921.134 1056.77 921.742 1056.8 925.041C1056.81 925.716 1056.51 929.029 1056.69 927.977C1056.52 929.154 1056.33 930.326 1056.08 931.49C1055.95 932.093 1055.81 932.699 1055.66 933.302C1055.63 933.379 1055.59 933.469 1055.54 933.573C1054.79 935.275 1054.15 937.131 1053.49 938.884C1053.16 939.515 1052.84 940.148 1052.5 940.771C1051.66 942.289 1050.67 943.723 1049.83 945.236C1049.8 945.298 1049.77 945.345 1049.75 945.397C1049.51 945.719 1049.28 946.044 1049.04 946.364C1047.85 947.952 1046.61 949.497 1045.32 950.997C1044.75 951.658 1042.01 954.431 1043.4 953.134C1042.27 954.21 1041.14 955.28 1039.96 956.309C1036.93 958.965 1033.77 961.508 1030.49 963.846C1030.53 963.798 1028.32 965.292 1027.96 965.526C1026.35 966.573 1024.72 967.586 1023.07 968.567C1019.52 970.672 1015.89 972.629 1012.19 974.436C998.887 980.927 984.424 985.219 969.699 988.072C962.975 989.375 956.233 990.27 949.467 990.904C952.229 982.547 955.319 974.101 958.666 965.98C960.176 962.316 961.75 958.678 963.394 955.071C963.799 954.184 964.211 953.296 964.626 952.412ZM1305.3 937.623C1301.05 956.036 1296.69 970.977 1290.22 989.26C1287.07 998.16 1283.67 1006.97 1280.04 1015.69C1278.34 1019.75 1276.59 1023.8 1274.78 1027.83C1273.82 1029.97 1272.84 1032.1 1271.86 1034.23C1271.85 1034.25 1271.57 1034.85 1271.35 1035.31C1270.99 1036.07 1270.16 1037.81 1270.05 1038.04C1262.01 1054.59 1253.08 1070.7 1243.31 1086.3C1241 1090 1238.63 1093.67 1236.22 1097.31C1234.94 1099.25 1233.64 1101.18 1232.33 1103.1C1232.24 1103.24 1231.95 1103.66 1231.7 1104.02C1230.95 1105.09 1230.21 1106.15 1229.46 1107.21C1224.25 1114.55 1218.86 1121.76 1213.27 1128.82C1190.11 1158.11 1166.88 1180.9 1138.32 1205.11C1106.94 1231.72 1084.92 1268.36 1075.57 1308.37C1070.3 1330.94 1070.91 1353.85 1070.91 1376.83C1070.91 1394.54 1071.35 1412.32 1070.91 1430.03C1070.84 1432.74 1070.9 1429.83 1070.68 1432.6C1070.66 1432.86 1070.44 1433.69 1070.36 1434.04C1070.22 1434.44 1070.07 1434.84 1069.9 1435.22C1069.9 1435.23 1069.9 1435.23 1069.9 1435.23C1069.78 1435.44 1069.36 1436.08 1069.04 1436.57C1068.69 1436.99 1068.28 1437.49 1068.14 1437.64C1068.07 1437.7 1068.02 1437.75 1067.97 1437.8C1067.79 1437.94 1067.58 1438.1 1067.32 1438.3C1066.21 1439.16 1063.66 1440.85 1060.93 1441.66C1058.56 1442.37 1056.21 1442.8 1053.74 1442.88C1052.34 1442.93 1050.92 1442.88 1049.52 1442.88C1024.09 1442.88 998.66 1442.88 973.231 1442.88C945.421 1442.88 917.611 1442.88 889.801 1442.88C894.808 1372.44 900.143 1302.01 907.806 1231.81C911.829 1194.96 916.48 1158.17 922.026 1121.51C927.057 1088.26 932.413 1054.91 940.505 1022.24C971.124 1019.4 1001.74 1011 1027.75 994.303C1043.29 984.324 1056.67 972.255 1066.88 956.791C1075.98 943 1082.78 925.365 1081.46 908.581C1080.26 893.267 1072.6 879.07 1058.64 871.838C1045.86 865.221 1030.19 864.445 1016.49 868.462C982.207 878.516 960.908 912.835 946.293 943.104C938.592 959.053 932.169 975.486 926.707 992.242C920.018 992.457 913.299 992.569 906.543 992.707C883.325 993.184 860.101 993.367 836.879 993.434C793.587 993.558 750.184 993.728 706.92 991.889C706.22 989.539 705.503 987.194 704.764 984.855C699.13 967.01 692.236 949.602 683.965 932.811C676.695 918.053 668.401 903.33 657.188 891.17C646.392 879.462 633.306 870.202 617.467 867.064C603.382 864.273 587.592 866.931 575.549 874.865C559.256 885.599 549.276 903.584 548.215 923.008C547.359 938.697 553.784 954.517 562.822 967.065C582.173 993.933 615.181 1009.13 646.45 1016.9C659.513 1020.15 672.734 1021.82 686.035 1022.76C691.346 1042.2 695.488 1061.98 699.093 1081.79C705.622 1117.66 710.885 1153.77 715.478 1189.94C724.824 1263.53 731.15 1337.47 736.653 1411.44C737.432 1421.92 738.193 1432.4 738.945 1442.88C725.894 1442.88 712.843 1442.88 699.792 1442.88C667.749 1442.88 635.705 1442.88 603.662 1442.88C598.393 1442.88 593.113 1442.98 587.844 1442.88C574.701 1442.63 562.734 1434.71 559.434 1421.59C558.131 1416.4 558.822 1409.04 558.822 1403.08C558.822 1382.16 558.822 1361.24 558.822 1340.32C558.822 1308.98 552.159 1278.75 537.108 1251.11C527.937 1234.27 515.851 1219.48 501.671 1206.61C488.325 1194.5 474.373 1183.27 461.584 1170.52C435.719 1144.75 412.573 1116.25 392.693 1085.62C352.637 1023.9 326.201 953.44 316.188 880.506C311.146 843.782 310.296 806.395 313.248 769.455C314.346 755.71 316.779 737.406 319.598 721.879C321.051 713.873 322.694 705.902 324.526 697.974C325.466 693.905 326.457 689.847 327.495 685.801C327.948 684.036 328.412 682.273 328.884 680.512C329.154 679.507 329.426 678.503 329.702 677.5C329.837 677.01 330.081 676.142 330.207 675.695C334.649 660.277 339.802 645.066 345.668 630.131C348.571 622.738 351.647 615.413 354.891 608.164C355.726 606.298 356.572 604.437 357.43 602.581C357.855 601.662 358.285 600.745 358.712 599.827C358.718 599.815 358.722 599.806 358.728 599.794C360.505 596.123 362.302 592.464 364.155 588.831C371.421 574.583 379.355 560.676 387.919 547.169C389.952 543.963 392.019 540.779 394.122 537.619C395.243 535.935 396.38 534.262 397.514 532.587C397.554 532.528 397.608 532.449 397.667 532.363C398.188 531.617 398.708 530.871 399.232 530.128C403.884 523.524 408.692 517.028 413.649 510.65C423.392 498.114 433.715 486.028 444.571 474.442C445.949 472.972 447.339 471.514 448.729 470.056C449.056 469.713 449.385 469.373 449.714 469.033C449.99 468.75 450.367 468.363 450.514 468.215C453.355 465.358 456.201 462.508 459.094 459.704C464.88 454.096 470.798 448.624 476.84 443.293C488.746 432.788 501.135 422.833 513.957 413.468C515.587 412.277 517.225 411.098 518.868 409.925C519.3 409.616 519.734 409.31 520.167 409.003C520.46 408.801 521.177 408.302 521.309 408.212C524.644 405.929 527.979 403.649 531.355 401.426C538.114 396.974 544.979 392.682 551.94 388.553C607.513 355.597 667.94 334.002 732.153 324.066C798.952 313.73 867.944 317.105 933.529 333.375C995.862 348.839 1055.04 376.717 1107.14 414.21C1158.66 451.284 1202.89 497.994 1237.38 551.269C1272.47 605.46 1296.8 666.097 1309.12 729.467C1315.22 760.862 1318.09 792.643 1318.14 825.056C1318.08 863.119 1313.9 900.366 1305.3 937.623Z" fill="#191B1C"/>
<path d="M815.099 208.301C822.24 204.445 827.248 195.286 827.248 187.258C827.248 167.159 827.248 147.06 827.248 126.96C827.248 94.9032 827.248 62.8462 827.248 30.7892C827.248 23.4022 827.248 16.0152 827.248 8.62923C827.248 1.24823 820.924 -2.06277 814.622 1.34023C807.481 5.19623 802.473 14.3552 802.473 22.3832C802.473 42.4822 802.473 62.5812 802.473 82.6812C802.473 114.738 802.473 146.795 802.473 178.852C802.473 186.239 802.473 193.626 802.473 201.012C802.473 208.393 808.797 211.704 815.099 208.301Z" fill="#191B1C"/>
<path d="M279.266 306.219C301.934 328.887 324.602 351.555 347.269 374.222C352.492 379.445 357.715 384.668 362.939 389.892C368.392 395.345 375.842 391.066 379.921 385.84C383.403 381.38 389.732 369.415 384.253 363.936C370.041 349.724 355.828 335.511 341.616 321.299C318.948 298.631 296.28 275.963 273.613 253.296C268.39 248.073 263.167 242.85 257.943 237.626C252.49 232.173 245.04 236.452 240.961 241.678C237.479 246.138 231.15 258.103 236.629 263.582C250.841 277.795 265.054 292.007 279.266 306.219Z" fill="#191B1C"/>
<path d="M196.73 802.462C176.631 802.462 156.532 802.462 136.432 802.462C104.375 802.462 72.3178 802.462 40.2608 802.462C32.8738 802.462 25.4868 802.462 18.1008 802.462C10.2078 802.462 3.67777 810.184 1.29777 817.165C-0.281234 821.798 -1.94524 833.898 6.27976 833.898C26.3788 833.898 46.4778 833.898 66.5778 833.898C98.6348 833.898 130.692 833.898 162.749 833.898C170.136 833.898 177.523 833.898 184.909 833.898C192.802 833.898 199.332 826.176 201.712 819.195C203.292 814.562 204.956 802.462 196.73 802.462Z" fill="#191B1C"/>
<path d="M370.227 1247.48C356.015 1261.7 341.802 1275.91 327.59 1290.12C304.922 1312.79 282.254 1335.46 259.587 1358.12C254.364 1363.35 249.141 1368.57 243.917 1373.79C238.459 1379.25 232.916 1387.87 235.366 1396C237.579 1403.34 246.087 1402.29 250.663 1397.72C264.875 1383.5 279.088 1369.29 293.3 1355.08C315.968 1332.41 338.636 1309.74 361.303 1287.08C366.526 1281.85 371.749 1276.63 376.973 1271.41C382.431 1265.95 387.974 1257.33 385.524 1249.2C383.31 1241.86 374.802 1242.91 370.227 1247.48Z" fill="#191B1C"/>
<path d="M1350.46 1330.14C1327.79 1307.47 1305.12 1284.8 1282.46 1262.13C1277.23 1256.91 1272.01 1251.69 1266.79 1246.46C1261.33 1241.01 1253.88 1245.29 1249.8 1250.52C1246.32 1254.98 1239.99 1266.94 1245.47 1272.42C1259.68 1286.63 1273.9 1300.84 1288.11 1315.06C1310.78 1337.72 1333.45 1360.39 1356.11 1383.06C1361.34 1388.28 1366.56 1393.51 1371.78 1398.73C1377.24 1404.18 1384.69 1399.9 1388.76 1394.68C1392.25 1390.22 1398.58 1378.25 1393.1 1372.77C1378.88 1358.56 1364.67 1344.35 1350.46 1330.14Z" fill="#191B1C"/>
<path d="M1623.45 802.458C1603.35 802.458 1583.25 802.458 1563.15 802.458C1531.09 802.458 1499.03 802.458 1466.98 802.458C1459.59 802.458 1452.2 802.458 1444.82 802.458C1436.92 802.458 1430.39 810.18 1428.01 817.161C1426.43 821.794 1424.77 833.894 1433 833.894C1453.09 833.894 1473.19 833.894 1493.29 833.894C1525.35 833.894 1557.41 833.894 1589.46 833.894C1596.85 833.894 1604.24 833.894 1611.62 833.894C1619.52 833.894 1626.05 826.172 1628.43 819.191C1630.01 814.557 1631.67 802.458 1623.45 802.458Z" fill="#191B1C"/>
<path d="M1259.5 388.872C1273.71 374.66 1287.92 360.447 1302.14 346.235C1324.8 323.567 1347.47 300.899 1370.14 278.232C1375.36 273.009 1380.59 267.786 1385.81 262.562C1391.27 257.104 1396.81 248.487 1394.36 240.355C1392.15 233.012 1383.64 234.065 1379.06 238.641C1364.85 252.853 1350.64 267.066 1336.43 281.278C1313.76 303.946 1291.09 326.614 1268.42 349.281C1263.2 354.504 1257.98 359.728 1252.75 364.951C1247.29 370.409 1241.75 379.026 1244.2 387.158C1246.42 394.501 1254.92 393.447 1259.5 388.872Z" fill="#191B1C"/>
</svg>
